<?xml version="1.0" encoding="iso-8859-1"?>
<!-- Generator: Adobe Illustrator 16.0.0, SVG Export Plug-In . SVG Version: 6.00 Build 0)  -->
<!DOCTYPE svg PUBLIC "-//W3C//DTD SVG 1.1//EN" "http://www.w3.org/Graphics/SVG/1.1/DTD/svg11.dtd">
<svg version="1.1" id="Capa_1" xmlns="http://www.w3.org/2000/svg" xmlns:xlink="http://www.w3.org/1999/xlink" x="0px" y="0px"
	 width="32.75px" height="32.75px" viewBox="0 0 32.75 32.75" style="enable-background:new 0 0 32.75 32.75;" xml:space="preserve"
	>
<g>
	<path d="M31.799,18.963l-9.351,11.012c-0.791,0.932-1.919,1.409-3.052,1.409c-0.916,0-1.834-0.312-2.587-0.949
		c-1.684-1.432-1.889-3.954-0.459-5.64l3.753-4.42H4c-2.209,0-4-1.791-4-4c0-2.208,1.791-4,4-4h16.105l-3.754-4.42
		c-1.43-1.684-1.225-4.208,0.459-5.638c1.687-1.429,4.209-1.225,5.639,0.459l9.351,11.01C33.066,15.278,33.066,17.472,31.799,18.963
		z"/>
</g>
<g>
</g>
<g>
</g>
<g>
</g>
<g>
</g>
<g>
</g>
<g>
</g>
<g>
</g>
<g>
</g>
<g>
</g>
<g>
</g>
<g>
</g>
<g>
</g>
<g>
</g>
<g>
</g>
<g>
</g>
</svg>
